{"title":"Sleeping Beauty[2011]BRrip[Ac3-5.1]-=[CaLvIn]=-","uid":7423294,"size":750298779,"categoryP":"video","categoryS":"movies","magnet":"?xt=urn:btih:739b90b851f0ec6488f456bf8be2cef19aef94c5&amp;dn=Sleeping+Beauty%5B2011%5DBRrip%5BAc3-5.1%5D-%3D%5BCaLvIn%5D%3D-&amp;tr=udp%3A%2F%2Ftracker.openbittorrent.com%3A80&amp;tr=udp%3A%2F%2Fopen.demonii.com%3A1337&amp;tr=udp%3A%2F%2Ftracker.coppersurfer.tk%3A6969&amp;tr=udp%3A%2F%2Fexodus.desync.com%3A6969","seeders":0,"leechers":1,"uploader":"rhythmtheguru","files":15,"time":1341733549,"description":"General\n\nComplete name                    : Sleeping Beauty[2011]BRrip[Ac3-5.1]-=[CaLvIn]=-\nIMDB Link                        : http://www.imdb.com/title/tt1588398\nFormat                           : AVI\nFormat/Info                      : Audio Video Interleave\nFile size                        : 699 MiB\nDuration                         : 1h 41mn\nOverall bit rate                 : 961 Kbps\n\n\nVideo\n\nID                               : 0\nFormat                           : MPEG-4 Visual\nFormat profile                   : Advanced Simple@L5\nFormat settings, BVOP            : 2\nFormat settings, QPel            : No\nFormat settings, GMC             : No warppoints\nFormat settings, Matrix          : Default (H.263)\nCodec ID                         : XVID\nCodec ID/Hint                    : XviD\nDuration                         : 1h 41mn\nBit rate                         : 760 Kbps\nWidth                            : 720 pixels\nHeight                           : 384 pixels\nDisplay aspect ratio             : 16:9\nFrame rate                       : 23.976 fps\nColor space                      : YUV\nChroma subsampling               : 4:2:0\nBit depth                        : 8 bits\nScan type                        : Progressive\nCompression mode                 : Lossy\nBits/(Pixel*Frame)               : 0.115\nStream size                      : 553 MiB (79%)\nWriting library                  : XviD 1.2.1 (UTC 2008-12-04)\n\nAudio\n\nID                               : 1\nFormat                           : AC-3\nFormat/Info                      : Audio Coding 3\nMode extension                   : CM (complete main)\nCodec ID                         : 2000\nDuration                         : 1h 41mn\nBit rate mode                    : Constant\nBit rate                         : 192 Kbps\nChannel(s)                       : 6 channels\nChannel positions                : Front: L C R, Side: L R, LFE\nSampling rate                    : 48.0 KHz\nBit depth                        : 16 bits\nCompression mode                 : Lossy\nStream size                      : 140 MiB (20%)\nAlignment                        : Split accross interleaves\nInterleave, duration             : 42 ms (1.00 video frame)\nInterleave, preload duration     : 500 ms\n\nScreens\n &lt;a href=&quot;\nhttp://img155.imageshack.us/img155/5623/92881201.png&quot; rel=&quot;nofollow&quot; target=&quot;_NEW&quot;&gt;\nhttp://img155.imageshack.us/img155/5623/92881201.png&lt;/a&gt; &lt;a href=&quot;\nhttp://img515.imageshack.us/img515/2900/43199975.png&quot; rel=&quot;nofollow&quot; target=&quot;_NEW&quot;&gt;\nhttp://img515.imageshack.us/img515/2900/43199975.png&lt;/a&gt; &lt;a href=&quot;\nhttp://img36.imageshack.us/img36/8199/22567121.png&quot; rel=&quot;nofollow&quot; target=&quot;_NEW&quot;&gt;\nhttp://img36.imageshack.us/img36/8199/22567121.png&lt;/a&gt; &lt;a href=&quot;\nhttp://img600.imageshack.us/img600/1121/63211454.png&quot; rel=&quot;nofollow&quot; target=&quot;_NEW&quot;&gt;\nhttp://img600.imageshack.us/img600/1121/63211454.png&lt;/a&gt; &lt;a href=&quot;\nhttp://img831.imageshack.us/img831/2355/15801299.png&quot; rel=&quot;nofollow&quot; target=&quot;_NEW&quot;&gt;\nhttp://img831.imageshack.us/img831/2355/15801299.png&lt;/a&gt; &lt;a href=&quot;\nhttp://img339.imageshack.us/img339/700/10599753.png&quot; rel=&quot;nofollow&quot; target=&quot;_NEW&quot;&gt;\nhttp://img339.imageshack.us/img339/700/10599753.png&lt;/a&gt; &lt;a href=&quot;\nhttp://img607.imageshack.us/img607/5420/89166251.png&quot; rel=&quot;nofollow&quot; target=&quot;_NEW&quot;&gt;\nhttp://img607.imageshack.us/img607/5420/89166251.png&lt;/a&gt; &lt;a href=&quot;\nhttp://img862.imageshack.us/img862/608/14841946.png&quot; rel=&quot;nofollow&quot; target=&quot;_NEW&quot;&gt;\nhttp://img862.imageshack.us/img862/608/14841946.png&lt;/a&gt; &lt;a href=&quot;\nhttp://img842.imageshack.us/img842/4265/72451201.png&quot; rel=&quot;nofollow&quot; target=&quot;_NEW&quot;&gt;\nhttp://img842.imageshack.us/img842/4265/72451201.png&lt;/a&gt; &lt;a href=&quot;\nhttp://img831.imageshack.us/img831/3708/72294192.png&quot; rel=&quot;nofollow&quot; target=&quot;_NEW&quot;&gt;\nhttp://img831.imageshack.us/img831/3708/72294192.png&lt;/a&gt;","torrent":{"xt":"urn:btih:739b90b851f0ec6488f456bf8be2cef19aef94c5","amp;dn":"Sleeping+Beauty%5B2011%5DBRrip%5BAc3-5.1%5D-%3D%5BCaLvIn%5D%3D-","amp;tr":["udp%3A%2F%2Ftracker.openbittorrent.com%3A80","udp%3A%2F%2Fopen.demonii.com%3A1337","udp%3A%2F%2Ftracker.coppersurfer.tk%3A6969","udp%3A%2F%2Fexodus.desync.com%3A6969"],"infoHash":"739b90b851f0ec6488f456bf8be2cef19aef94c5","infoHashBuffer":{"type":"Buffer","data":[115,155,144,184,81,240,236,100,136,244,86,191,139,226,206,241,154,239,148,197]},"announce":[],"urlList":[]}}